<?xml version="1.0" encoding="UTF-8"?>
<svg width="26px" height="24px" viewBox="0 0 26 24" version="1.1" xmlns="http://www.w3.org/2000/svg" xmlns:xlink="http://www.w3.org/1999/xlink">
    <title>Star</title>
    <g id="Page-1" stroke="none" stroke-width="1" fill="none" fill-rule="evenodd">
        <g id="chat" transform="translate(-1528.000000, -602.000000)" fill="#CBD0E0">
            <path d="M1541,623.240792 L1535.33056,625.745044 C1534.32017,626.191344 1533.13929,625.734058 1532.69299,624.723667 C1532.55275,624.406174 1532.49754,624.057651 1532.53281,623.712361 L1533.16254,617.546545 L1533.16254,617.546545 L1529.0289,612.928441 C1528.29222,612.105417 1528.36221,610.841022 1529.18523,610.104338 C1529.44385,609.872851 1529.75826,609.712653 1530.09755,609.639491 L1536.15618,608.333059 L1536.15618,608.333059 L1539.2709,602.974663 C1539.82599,602.019705 1541.05013,601.695553 1542.00509,602.250647 C1542.30516,602.425073 1542.55468,602.674589 1542.7291,602.974663 L1545.84382,608.333059 L1545.84382,608.333059 L1551.90245,609.639491 C1552.98221,609.87232 1553.66877,610.936377 1553.43594,612.016129 C1553.36278,612.355417 1553.20258,612.669824 1552.9711,612.928441 L1548.83746,617.546545 L1548.83746,617.546545 L1549.46719,623.712361 C1549.57942,624.811214 1548.7796,625.79299 1547.68075,625.905219 C1547.33546,625.940484 1546.98693,625.885283 1546.66944,625.745044 L1541,623.240792 L1541,623.240792 Z" id="Star"></path>
        </g>
    </g>
</svg>