<?xml version="1.0" encoding="UTF-8"?>
<svg width="26px" height="24px" viewBox="0 0 26 24" version="1.1" xmlns="http://www.w3.org/2000/svg" xmlns:xlink="http://www.w3.org/1999/xlink">
    <title>Star</title>
    <g id="Page-1" stroke="none" stroke-width="1" fill="none" fill-rule="evenodd">
        <g id="chat" transform="translate(-1368.000000, -602.000000)" fill="#EAA34F">
            <path d="M1381,623.240792 L1375.33056,625.745044 C1374.32017,626.191344 1373.13929,625.734058 1372.69299,624.723667 C1372.55275,624.406174 1372.49754,624.057651 1372.53281,623.712361 L1373.16254,617.546545 L1373.16254,617.546545 L1369.0289,612.928441 C1368.29222,612.105417 1368.36221,610.841022 1369.18523,610.104338 C1369.44385,609.872851 1369.75826,609.712653 1370.09755,609.639491 L1376.15618,608.333059 L1376.15618,608.333059 L1379.2709,602.974663 C1379.82599,602.019705 1381.05013,601.695553 1382.00509,602.250647 C1382.30516,602.425073 1382.55468,602.674589 1382.7291,602.974663 L1385.84382,608.333059 L1385.84382,608.333059 L1391.90245,609.639491 C1392.98221,609.87232 1393.66877,610.936377 1393.43594,612.016129 C1393.36278,612.355417 1393.20258,612.669824 1392.9711,612.928441 L1388.83746,617.546545 L1388.83746,617.546545 L1389.46719,623.712361 C1389.57942,624.811214 1388.7796,625.79299 1387.68075,625.905219 C1387.33546,625.940484 1386.98693,625.885283 1386.66944,625.745044 L1381,623.240792 L1381,623.240792 Z" id="Star"></path>
        </g>
    </g>
</svg>