<?xml version="1.0" encoding="UTF-8" standalone="no"?>
<!DOCTYPE svg PUBLIC "-//W3C//DTD SVG 1.1//EN" "http://www.w3.org/Graphics/SVG/1.1/DTD/svg11.dtd">
<svg width="100%" height="100%" viewBox="0 0 544 547" version="1.1" xmlns="http://www.w3.org/2000/svg" xmlns:xlink="http://www.w3.org/1999/xlink" xml:space="preserve" xmlns:serif="http://www.serif.com/" style="fill-rule:evenodd;clip-rule:evenodd;stroke-linejoin:round;stroke-miterlimit:2;">
    <g transform="matrix(1,0,0,1,-12980.8,-10906.9)">
        <g transform="matrix(0.40762,0,0,0.325747,4835.31,10992)">
            <g transform="matrix(3.4623,0,0,4.33252,-48527.7,-25880.4)">
                <g transform="matrix(0.712442,0,0,0.712442,19023.8,5708.01)">
                    <path d="M1408.18,454.07C1407.12,436.87 1425.35,425.68 1440.89,418.23C1456.43,410.78 1474.38,398.63 1472.11,381.55C1470.32,368.1 1456.5,359.91 1443.7,355.36C1430.9,350.81 1416.53,347.1 1408.7,336.03C1405.92,331.827 1404.77,326.751 1405.46,321.76C1407.85,301.12 1388.94,283.76 1368.8,288.9L1368.23,289.05C1349.4,294.05 1334.23,310.92 1331.23,330.19C1328.67,346.65 1333.92,365.19 1324.79,379.08C1312.18,398.32 1277.22,400.27 1274.79,423.14C1272.31,446.19 1308.79,464.14 1298.79,485.06C1287.12,509.6 1232.79,504.32 1268.04,543.23C1287.25,564.44 1326.54,582.51 1355.04,583.71C1384.62,584.96 1407.14,568.5 1422.63,544.26C1433.58,527.12 1439.82,509.86 1430.78,490.51C1424.69,477.44 1409.15,469.77 1408.18,454.07Z" style="fill:rgb(184,214,255);fill-rule:nonzero;"/>
                </g>
                <g transform="matrix(0.712442,0,0,0.712442,19023.8,5708.01)">
                    <path d="M1485.75,642.94C1497.94,637.25 1511,633.19 1522.17,625.69C1533.34,618.19 1542.69,606.12 1542.26,592.69C1541.83,579.26 1528.01,566.48 1515.26,570.83C1534.78,566.54 1555.84,560.07 1566.78,543.34C1577.72,526.61 1569.32,497.76 1549.33,497.34C1566.33,490.14 1583.89,482.58 1596.59,469.16C1609.29,455.74 1615.95,434.76 1607.43,418.36C1598.91,401.96 1572.2,396.9 1561.74,412.14C1551.47,427.14 1559.92,452.65 1544.41,462.14C1527.59,472.41 1503.18,449.51 1487.48,461.42C1477.14,469.27 1480.16,485.42 1485.31,497.42C1490.46,509.42 1496.69,523.42 1489.93,534.49C1477.8,554.35 1439.01,541.24 1429.05,562.27C1419.8,581.81 1449.15,601.04 1446.19,622.45C1444.01,638.26 1394.66,671.06 1415.84,687.31C1428.49,696.87 1470.63,650 1485.75,642.94Z" style="fill:rgb(184,214,255);fill-rule:nonzero;"/>
                </g>
                <g transform="matrix(0.712442,0,0,0.712442,19023.8,5708.01)">
                    <path d="M1540.64,743.67C1506.29,801.05 1437.37,817.57 1376.51,820.72C1372.86,820.647 1369.13,820.647 1365.33,820.72C1362.47,820.72 1359.57,820.84 1356.64,820.94C1350.64,821.16 1344.42,821.27 1338.12,821.24C1318.43,821.201 1298.77,819.845 1279.27,817.18C1270.9,816.01 1262.52,814.58 1254.27,812.84C1208.89,803.32 1165.69,784.79 1136.91,752.46C1119.81,673.11 1147.21,608.38 1195.67,566.38C1199.04,563.46 1202.51,560.657 1206.07,557.97C1223.38,544.952 1242.54,534.601 1262.92,527.26C1357.56,492.91 1479.62,519.92 1544.18,637.73L1544.69,638.65C1544.85,638.94 1545.01,639.23 1545.16,639.52C1569.56,684.91 1560.65,712.24 1540.64,743.67Z" style="fill:rgb(60,111,255);fill-rule:nonzero;"/>
                </g>
                <g transform="matrix(0.712442,0,0,0.712442,19023.8,5708.01)">
                    <path d="M1365.33,820.71C1362.47,820.71 1359.57,820.83 1356.64,820.93C1350.64,821.15 1344.42,821.26 1338.12,821.23C1318.43,821.191 1298.77,819.835 1279.27,817.17C1270.9,816 1262.52,814.57 1254.27,812.83C1208.89,803.31 1165.69,784.78 1136.91,752.45C1119.81,673.1 1147.21,608.37 1195.67,566.37C1199.04,563.45 1202.51,560.647 1206.07,557.96C1223.38,544.942 1242.54,534.591 1262.92,527.25L1263.45,528.87C1239.31,545.65 1225.92,575.4 1225.3,604.8C1224.68,634.2 1235.77,663.02 1252.56,687.16C1269.35,711.3 1291.56,731.16 1315.06,748.88C1327.98,758.66 1341.52,768.03 1351.68,780.67C1360.69,791.94 1366.82,806.5 1365.33,820.71Z" style="fill:rgb(0,51,255);fill-opacity:0.44;fill-rule:nonzero;"/>
                </g>
                <g transform="matrix(0.712442,0,0,0.712442,19023.8,5708.01)">
                    <path d="M1205.49,818.19C1198.14,818.96 1191.97,819.86 1186.56,820.67C1164.11,824.05 1154.72,825.86 1128.75,809.79C1119.75,804.23 1113.05,793.86 1108.62,780.96C1091.95,732.56 1107.56,648.64 1157.62,650.91C1245.5,633.53 1273.05,811.15 1205.49,818.19Z" style="fill:rgb(255,220,98);fill-rule:nonzero;"/>
                </g>
                <g transform="matrix(0.712442,0,0,0.712442,19023.8,5708.01)">
                    <path d="M1217.58,691C1243.76,728.59 1202.44,804.21 1256.58,787.66C1259.46,786.77 1262.92,782.8 1265.06,780.73C1267.45,778.438 1269.6,775.908 1271.48,773.18C1274.76,768.427 1276.91,762.984 1277.76,757.27C1279.44,745.41 1275.19,733.64 1269.49,723.43C1259.49,705.49 1246.4,686.43 1232.05,671.98C1223.58,663.44 1211.39,653.98 1200.05,650.98C1189.13,648.07 1180.97,647.56 1169.69,648.08C1165.86,648.138 1162.07,648.813 1158.45,650.08C1156.96,650.66 1155.28,652.08 1155.91,653.5C1156.31,654.44 1157.44,654.76 1158.44,654.98C1169.29,657.32 1184.89,658.4 1190.65,669.93C1194.33,675.32 1213.83,685.63 1217.58,691Z" style="fill:rgb(255,220,98);fill-rule:nonzero;"/>
                </g>
                <g transform="matrix(0.712442,0,0,0.712442,19023.8,5708.01)">
                    <path d="M1228.45,714.35C1227.88,708.709 1226.27,703.221 1223.71,698.16C1222.84,696.45 1220.28,697.99 1221.15,699.69C1225.37,708.102 1226.71,717.674 1224.95,726.92C1222.12,740.96 1212.39,752.663 1199.1,758C1197.33,758.7 1198.1,761.57 1199.93,760.86C1208.94,757.273 1216.59,750.943 1221.81,742.77C1227.12,734.301 1229.46,724.296 1228.45,714.35Z" style="fill:rgb(255,192,0);fill-rule:nonzero;"/>
                </g>
                <g transform="matrix(0.712442,0,0,0.712442,19023.8,5708.01)">
                    <path d="M1217,711.183C1217,702.251 1209.75,695 1200.82,695L1168.18,695C1159.25,695 1152,702.251 1152,711.183L1152,789.817C1152,798.749 1159.25,806 1168.18,806L1200.82,806C1209.75,806 1217,798.749 1217,789.817L1217,711.183Z" style="fill:rgb(29,29,27);"/>
                </g>
                <g transform="matrix(-2.72763e-16,0.712442,-0.712442,-2.72763e-16,20402.4,5398.81)">
                    <path d="M1236.6,738.733C1236.6,728.946 1228.65,721 1218.87,721L1150.13,721C1140.35,721 1132.4,728.946 1132.4,738.733L1132.4,762.267C1132.4,772.054 1140.35,780 1150.13,780L1218.87,780C1228.65,780 1236.6,772.054 1236.6,762.267L1236.6,738.733Z" style="fill:rgb(45,47,53);"/>
                </g>
                <g transform="matrix(0.712442,0,0,0.712442,19023.8,5708.01)">
                    <path d="M1206.61,717C1205.54,712.417 1201.79,708.917 1197.14,708.16C1196.37,707.963 1195.56,708.402 1195.31,709.16C1195.1,709.935 1195.55,710.747 1196.31,710.99C1196.81,711.056 1197.29,711.163 1197.77,711.31C1198,711.38 1198.23,711.45 1198.45,711.54L1198.55,711.54L1198.86,711.68C1199.31,711.899 1199.74,712.149 1200.15,712.43L1200.44,712.64L1200.99,713.11C1201.35,713.421 1201.68,713.755 1201.99,714.11C1202.3,714.465 1202.25,714.47 1202.05,714.18C1202.12,714.28 1202.2,714.37 1202.26,714.47C1202.32,714.57 1202.53,714.87 1202.65,715.08C1202.77,715.29 1202.89,715.49 1203,715.7L1203.15,716.03C1203.34,716.516 1203.49,717.013 1203.6,717.52C1203.84,718.291 1204.65,718.739 1205.43,718.52C1206.13,718.359 1206.63,717.72 1206.61,717Z" style="fill:rgb(69,69,69);fill-rule:nonzero;"/>
                </g>
                <g transform="matrix(0.712442,0,0,0.712442,19023.8,5708.01)">
                    <path d="M1296.78,543.76C1296.78,566.56 1317.98,591.89 1347.48,591.89C1376.98,591.89 1403.61,566.56 1403.61,543.76C1403.61,520.96 1379.69,502.48 1350.19,502.48C1320.69,502.48 1296.78,521 1296.78,543.76Z" style="fill:rgb(0,51,255);fill-rule:nonzero;"/>
                </g>
                <g transform="matrix(0.712442,0,0,0.712442,19023.8,5708.01)">
                    <path d="M1134,772C1132.5,771.09 1131,770.17 1129.44,769.36C1129.38,769.14 1129.34,768.92 1129.29,768.7L1134,772Z" style="fill-rule:nonzero;"/>
                </g>
                <g transform="matrix(0.712442,0,0,0.712442,19023.8,5708.01)">
                    <path d="M1186.56,820.67C1164.11,824.05 1154.72,825.86 1128.75,809.79C1119.75,804.23 1113.05,793.86 1108.62,780.96C1109.69,777.935 1111.82,775.399 1114.62,773.83C1117.81,772.381 1121.44,772.205 1124.76,773.34C1126.4,773.852 1127.99,774.521 1129.5,775.34C1133.5,793.34 1148.86,808.34 1166.99,811.65C1171.36,812.46 1175.92,812.65 1179.99,814.45C1182.87,815.651 1185.2,817.865 1186.56,820.67Z" style="fill:rgb(255,192,0);fill-rule:nonzero;"/>
                </g>
                <g transform="matrix(0.712442,0,0,0.712442,19023.8,5708.01)">
                    <path d="M1545.11,639.51C1569.56,684.91 1560.65,712.24 1540.64,743.67C1506.29,801.05 1437.37,817.57 1376.51,820.72C1370.11,820.59 1363.51,820.72 1356.64,820.93C1324.87,822.09 1271.64,816.26 1237,809C1238.54,807.56 1249.21,798.07 1251,797C1261,791 1281.5,802.46 1293.07,803.63C1304.64,804.8 1316.07,807.63 1327.65,807.92C1354.65,808.62 1380.06,795.92 1402.83,781.41C1456.95,746.977 1503.15,701.436 1538.36,647.81C1540.36,644.72 1542.36,641.57 1544.64,638.64C1544.8,638.93 1545,639.22 1545.11,639.51Z" style="fill:rgb(0,51,255);fill-rule:nonzero;"/>
                </g>
                <g transform="matrix(0.712442,0,0,0.712442,19023.8,5708.01)">
                    <path d="M1208.31,825.93C1222.31,823.39 1233.96,816.87 1244.2,806.48C1250.69,804.35 1340.93,812.24 1338.2,807.42C1323.79,782.49 1334.36,787.7 1329.95,761.28C1298.24,763.02 1271.13,780.94 1238.3,770.57C1223.92,766.02 1206.76,755.21 1191.9,752.57C1187.13,751.71 1183.17,758.12 1187.07,761.01C1196.36,767.88 1203.98,768.2 1209.59,772.68C1209.8,772.84 1210,773.01 1210.21,773.2C1212.79,775.448 1215.57,777.457 1218.52,779.2C1221.47,780.943 1222.75,810.88 1179.88,804.79C1176.09,804.25 1169.68,804.61 1157.69,800.34C1155.21,799.46 1152.48,798.34 1149.49,797.04C1138.7,792.24 1173.57,820.04 1196.25,825.67C1200.21,826.604 1204.32,826.692 1208.31,825.93Z" style="fill:rgb(255,192,161);fill-rule:nonzero;"/>
                </g>
                <g transform="matrix(0.712442,0,0,0.712442,19023.8,5708.01)">
                    <path d="M1332.78,797L1337.33,807.35C1337.59,806.106 1337.99,804.896 1338.52,803.74C1336.37,801.71 1334.44,799.449 1332.78,797Z" style="fill:rgb(0,161,146);fill-rule:nonzero;"/>
                </g>
                <g transform="matrix(0.712442,0,0,0.712442,19023.8,5708.01)">
                    <path d="M1461.26,786.88C1428.45,802.656 1392.52,810.858 1356.12,810.88C1342.51,810.88 1327.65,809.88 1317.12,800.97C1303.1,789 1312,769 1310,761C1356.19,755.37 1384.53,721.28 1417.44,687.15C1423.87,680.48 1432.61,664.31 1441.15,661.15C1453.15,656.72 1480.87,603.33 1488.64,610.95C1491.51,613.76 1518.13,617.3 1536.11,629.44C1541.11,632.809 1544.65,637.961 1545.99,643.84C1552.77,673.84 1533.27,717.03 1529.05,724.19C1529.05,724.19 1510.29,763.37 1461.26,786.88Z" style="fill:rgb(60,111,255);fill-rule:nonzero;"/>
                </g>
                <g transform="matrix(0.712442,0,0,0.712442,19023.8,5708.01)">
                    <path d="M1310.73,498.31C1311.47,509.798 1311.11,521.33 1309.67,532.75C1306.27,560.51 1333.37,578.34 1360.4,571.17C1362.99,570.464 1365.53,569.571 1368,568.5C1388.9,559.41 1395.13,538.5 1382.92,519.3C1372.1,502.24 1354.35,474.3 1344.6,459.06C1335.52,444.8 1334.16,442.68 1332.44,439.99C1332.17,439.57 1332.04,439.35 1332.04,439.35L1306.19,472.78C1307.53,477.233 1308.58,481.77 1309.32,486.36C1310,490.35 1310.45,494.36 1310.73,498.31Z" style="fill:rgb(255,192,161);fill-rule:nonzero;"/>
                </g>
                <g transform="matrix(0.712442,0,0,0.712442,19023.8,5708.01)">
                    <path d="M1309.32,486.36C1309.99,490.36 1310.45,494.36 1310.73,498.31C1312.73,498.62 1314.99,497.64 1317.1,496.85C1324.32,494.16 1329.39,488.7 1334.63,483.36C1339.87,478.02 1344.85,472.16 1346.36,464.77C1347.08,461.27 1344.21,458.44 1342.43,455.64L1337.78,448.34L1333.22,441.2C1329.62,457.35 1321.45,471.41 1311,484.2C1310.45,484.9 1309.88,485.61 1309.32,486.36Z" style="fill:rgb(250,156,115);fill-opacity:0.82;fill-rule:nonzero;"/>
                </g>
                <g transform="matrix(0.712442,0,0,0.712442,19023.8,5708.01)">
                    <path d="M1207.38,388.29C1222.32,462.18 1247.1,490.39 1263.93,509.14C1270.62,516.59 1286.81,519.35 1293.93,512.33L1294.04,512.22C1324.85,481.76 1329.61,446.34 1329.61,446.34C1341,410.4 1329.98,410.52 1329.98,410.52L1329.98,351.23C1214.26,289.48 1207.38,388.29 1207.38,388.29Z" style="fill:rgb(255,192,161);fill-rule:nonzero;"/>
                </g>
                <g transform="matrix(0.712442,0,0,0.712442,19023.8,5708.01)">
                    <path d="M1268.53,385.4C1269.6,391.57 1272.71,395.9 1276.74,400.59L1303,431.32C1307.82,436.94 1312.8,442.9 1314.21,450.17C1315.62,457.44 1313.14,464.96 1309.76,471.58C1306.38,478.2 1302.05,484.33 1299.3,491.22C1297.1,496.71 1295.94,502.54 1294.8,508.32C1294.54,509.61 1294.28,510.92 1294.04,512.22C1324.85,481.76 1332.04,445.09 1332.04,445.09C1343.43,409.15 1330.04,410.52 1330.04,410.52L1330.04,395.12C1329.3,395.079 1328.56,395.122 1327.83,395.25C1323.94,395.96 1320.4,399.03 1316.51,398.3C1313.98,397.82 1311.99,395.75 1310.83,393.44C1309.8,391.069 1309,388.609 1308.42,386.09C1305.77,377.09 1299.42,368.61 1290.42,365.72C1282.42,363.15 1271.9,366.19 1267.97,374.01C1266,378 1267.82,381.32 1268.53,385.4Z" style="fill:rgb(255,165,127);fill-opacity:0.61;fill-rule:nonzero;"/>
                </g>
                <g transform="matrix(0.712442,0,0,0.712442,19023.8,5708.01)">
                    <path d="M1355.54,418.88C1346.98,425.94 1338.04,433.21 1326.54,434.34C1320.9,435.016 1315.21,433.429 1310.74,429.93C1301.32,422.18 1303.42,409.27 1302.74,397.93C1302.11,387.73 1295.44,375.46 1285.35,377.11C1275.86,378.66 1271.93,391.47 1262.67,394.04C1256.33,395.81 1249.88,392.16 1243.37,391.23C1217.08,387.48 1202.11,426.15 1175.66,428.52C1161.42,429.8 1147.91,419.01 1143.1,405.52C1137.1,388.64 1155.43,373.57 1158.1,356.96C1159.2,350.06 1160.69,334.51 1163.1,327.96C1171.3,305.67 1193.76,303.65 1214.98,302.79C1230.76,302.15 1247.67,306.34 1263.1,302.96C1287.31,297.66 1306.1,284.05 1331.54,291.64C1364.08,301.35 1386.44,333.55 1384.54,367.44C1383.22,390.91 1376.92,403.44 1365.31,420.85C1359.54,429.705 1349.87,435.285 1339.31,435.85C1332.24,436.14 1326.31,434.15 1326.13,428.35" style="fill:rgb(29,29,27);fill-rule:nonzero;"/>
                </g>
                <g transform="matrix(0.712442,0,0,0.712442,19023.8,5708.01)">
                    <path d="M1319.85,438.52C1317.3,433.83 1315.37,433.81 1317.61,414.77C1318.61,406.66 1326.31,400.77 1334.26,402.66C1335.3,402.911 1336.31,403.29 1337.26,403.79C1343.6,407.12 1346.89,415.11 1345.26,422.09C1343.63,429.07 1339,437.81 1332,439.35C1332,439.35 1324.59,441.58 1319.85,438.52Z" style="fill:rgb(255,164,121);fill-rule:nonzero;"/>
                </g>
                <g transform="matrix(0.712442,0,0,0.712442,19023.8,5708.01)">
                    <path d="M1223.43,447.57L1223.43,445.1" style="fill:none;fill-rule:nonzero;"/>
                </g>
                <g transform="matrix(0.591682,-0.396845,0.396845,0.591682,18987.4,6249.23)">
                    <ellipse cx="1222.7" cy="463.83" rx="7.52" ry="19.93" style="fill:rgb(255,192,161);stroke:black;stroke-width:1.33px;"/>
                </g>
                <g transform="matrix(0.712442,0,0,0.712442,19023.8,5708.01)">
                    <path d="M1223.43,496.8C1230.62,493.2 1240.72,489.6 1249.93,486.01C1254.81,484.11 1259.44,482.21 1263.25,480.3L1239.46,451.25L1236.87,448.76C1234.69,464.57 1223.72,466.06 1223.45,495.67C1223.43,496 1223.43,496.42 1223.43,496.8Z" style="fill:rgb(255,191,164);fill-rule:nonzero;"/>
                </g>
                <g transform="matrix(0.591682,-0.396845,0.396845,0.591682,18994.9,6256.27)">
                    <ellipse cx="1244.2" cy="451.5" rx="11.15" ry="23.29" style="fill:rgb(255,192,161);stroke:black;stroke-width:1.33px;"/>
                </g>
                <g transform="matrix(0.712442,0,0,0.712442,19023.8,5708.01)">
                    <path d="M1235.15,459.06L1230.26,462.41" style="fill:none;fill-rule:nonzero;stroke:black;stroke-width:1.33px;"/>
                </g>
                <g transform="matrix(0.712442,0,0,0.712442,19023.8,5708.01)">
                    <path d="M1316.92,407.13C1294.92,419.24 1275.65,431.02 1254.86,445.13" style="fill-rule:nonzero;stroke:black;stroke-width:1.33px;"/>
                </g>
                <g transform="matrix(0.712442,0,0,0.712442,19023.8,5708.01)">
                    <path d="M1341.08,418.27C1339.67,413.03 1334.08,409.45 1329,410.51C1326.45,411.03 1326.87,431.04 1328.75,432.51C1334.29,436.86 1342.16,422.29 1341.08,418.27Z" style="fill:rgb(255,146,89);fill-rule:nonzero;"/>
                </g>
                <g transform="matrix(0.712442,0,0,0.712442,19023.8,5708.01)">
                    <path d="M1223.43,496.8C1230.62,493.2 1240.72,489.6 1249.93,486.01C1247.01,482.01 1240.28,484.82 1237.04,486.55C1232.22,489.133 1227.67,492.188 1223.45,495.67C1223.43,496 1223.43,496.42 1223.43,496.8Z" style="fill:rgb(245,149,111);fill-rule:nonzero;"/>
                </g>
                <g transform="matrix(0.712442,0,0,0.712442,19023.8,5708.01)">
                    <path d="M1157.64,800.3C1170.32,809.337 1186.46,812.078 1201.41,807.73C1207.06,806.01 1212.5,803.2 1216.41,798.73C1220.32,794.26 1222.41,788.04 1220.89,782.33C1219.89,778.49 1214.89,775.41 1209.58,772.62C1209.79,772.78 1209.99,772.95 1210.2,773.14C1214.2,776.7 1218.11,780.4 1218.11,780.4C1218.11,780.4 1222.74,810.82 1179.87,804.73C1176,804.21 1169.63,804.57 1157.64,800.3Z" style="fill:rgb(251,157,103);fill-rule:nonzero;"/>
                </g>
                <g transform="matrix(0.712442,0,0,0.712442,19023.8,5708.01)">
                    <path d="M1140,766.06C1142,766.06 1144.1,765.73 1146.06,766.22C1148.02,766.71 1149.83,768.48 1149.24,770.22C1148.65,771.96 1146.03,772.57 1143.92,772.48C1141.81,772.39 1139.43,772.13 1137.84,773.4C1135.49,775.28 1137.01,779.07 1139.69,780.53C1142.37,781.99 1145.69,782.05 1148.69,782.78C1151.69,783.51 1154.89,785.51 1154.88,788.36C1154.88,791.87 1150.18,793.71 1146.32,793.8C1136.84,794.02 1127.47,788.74 1123.47,780.92C1120.22,774.57 1119.95,763.35 1126.31,758.49C1130.18,762.25 1133.76,766 1140,766.06Z" style="fill:rgb(255,192,161);fill-rule:nonzero;"/>
                </g>
                <g transform="matrix(0.712442,0,0,0.712442,19023.8,5708.01)">
                    <path d="M1165.39,653.2C1165.3,654.09 1164.34,654.58 1163.51,654.91C1138.38,664.84 1114.89,675.91 1113.96,706.73C1113.13,734.28 1133.3,735.56 1140.89,753.22C1144.78,762.22 1139.77,773.22 1131.77,778.92C1130.65,779.718 1129.49,780.45 1128.28,781.11C1104.51,794.11 1076.74,771.43 1072.84,746.93C1071.37,737.71 1072.46,728.22 1074.84,719.19C1079.68,701.496 1089.35,685.497 1102.78,673C1104.12,671.74 1105.49,670.51 1106.9,669.33C1108.9,667.65 1110.95,666.057 1113.04,664.55C1121.52,658.425 1130.94,653.729 1140.93,650.65C1148.51,648.34 1157.23,647.1 1163.93,651.27C1164.71,651.69 1165.48,652.36 1165.39,653.2Z" style="fill:rgb(255,220,98);fill-rule:nonzero;"/>
                </g>
                <g transform="matrix(0.712442,0,0,0.712442,19023.8,5708.01)">
                    <ellipse cx="1171.5" cy="659" rx="24.5" ry="17" style="fill:rgb(255,154,0);"/>
                </g>
                <g transform="matrix(0.712442,0,0,0.712442,19023.8,5708.01)">
                    <path d="M1181.85,661C1177.17,668.55 1168.27,668.29 1161.68,664C1160.29,663.185 1159.11,662.05 1158.25,660.69C1157.67,659.69 1157.66,655.13 1157.91,649.63C1158.16,643.84 1158.69,637.01 1159.14,632.15L1159.14,631.86C1159.14,631.56 1159.2,631.27 1159.22,631C1159.33,629.266 1159.54,627.54 1159.85,625.83L1180.62,625.83C1180.76,627.17 1180.99,628.59 1181.26,630.1C1181.89,633.59 1182.78,637.45 1183.44,641.35C1184.69,648.46 1185.14,655.69 1181.85,661Z" style="fill:rgb(253,191,162);fill-rule:nonzero;"/>
                </g>
                <g transform="matrix(0.712442,0,0,0.712442,19023.8,5708.01)">
                    <path d="M1159.17,631.36C1159.07,631.427 1158.96,631.5 1158.87,631.58C1158.44,631.51 1158,631.42 1157.57,631.33L1159.25,630.57L1163.25,628.75C1161.81,629.482 1160.44,630.356 1159.17,631.36Z" style="fill-rule:nonzero;"/>
                </g>
                <g transform="matrix(0.712442,0,0,0.712442,19023.8,5708.01)">
                    <path d="M1183.47,636.08C1178.99,641.258 1172.67,644.489 1165.85,645.08C1163.12,645.39 1160.36,644.889 1157.91,643.64C1158.16,638.32 1158.69,632.04 1159.14,627.58C1166.3,628.829 1173.65,628.261 1180.53,625.93C1180.78,625.85 1181.03,625.76 1181.29,625.69C1181.92,629 1182.81,632.5 1183.47,636.08Z" style="fill:rgb(247,167,131);fill-rule:nonzero;"/>
                </g>
                <g transform="matrix(0.712442,0,0,0.712442,19023.8,5708.01)">
                    <path d="M1548.16,824.26C1567.16,819.326 1584.52,809.462 1598.49,795.67C1604.91,789.31 1610.74,781.75 1612.34,772.85C1613.94,763.95 1610.14,753.58 1601.82,750.05C1590.55,745.27 1578.49,754.39 1570.1,763.3C1561.71,772.21 1551.47,782.5 1539.42,780.38C1539.34,769.56 1539.22,758.5 1535.62,748.3C1532.02,738.1 1524.22,728.72 1513.69,726.2C1503.16,723.68 1490.47,730.27 1488.91,740.98C1487.59,749.98 1493.65,760.43 1488.2,767.78C1482.2,775.92 1468.97,771.11 1461.76,764C1454.55,756.89 1447.49,747.38 1437.36,747.44C1425.45,747.52 1418.07,762.15 1420.77,773.75C1423.47,785.35 1432.65,794.15 1441.4,802.22C1432.64,799.37 1423.4,796.48 1414.4,798.45C1405.4,800.42 1397.21,809.21 1399.4,818.16C1402.19,829.72 1417.55,831.74 1429.4,831.31L1555.08,826.73C1573.4,826.07 1594.78,823.73 1604.27,808.01" style="fill:rgb(48,82,139);fill-rule:nonzero;"/>
                </g>
                <g transform="matrix(0.712442,0,0,0.712442,19023.8,5708.01)">
                    <path d="M1464.51,647.11C1457.21,669.52 1441.38,687.87 1423.08,702.23C1402.35,718.5 1378.21,729.56 1354.42,740.54C1340.23,747.1 1326.03,753.68 1312.42,761.37C1311.99,761.645 1311.72,762.124 1311.72,762.638C1311.72,763.461 1312.4,764.138 1313.22,764.138C1313.47,764.138 1313.71,764.077 1313.93,763.96C1338.63,750.02 1365.17,739.79 1390.24,726.58C1411.79,715.22 1432.47,701.24 1448.1,682.31C1456.64,672.156 1463.19,660.486 1467.42,647.91C1468,646.07 1465.11,645.28 1464.51,647.11Z" style="fill:rgb(0,56,105);fill-rule:nonzero;"/>
                </g>
                <g transform="matrix(0.712442,0,0,0.712442,19023.8,5708.01)">
                    <path d="M1450.73,641.55C1450.57,639.64 1447.57,639.62 1447.73,641.55C1448.54,651.65 1445.27,661.666 1438.67,669.35C1437.4,670.8 1439.52,672.93 1440.79,671.47C1447.96,663.227 1451.54,652.446 1450.73,641.55Z" style="fill:rgb(0,56,105);fill-rule:nonzero;"/>
                </g>
                <g transform="matrix(0.712442,0,0,0.712442,19023.8,5708.01)">
                    <path d="M1127.87,753.82C1116.04,743.028 1111.56,726.256 1116.43,711C1117.86,706.613 1120.02,702.497 1122.81,698.82C1123.97,697.28 1121.37,695.82 1120.22,697.3C1106.74,715.251 1109.15,740.817 1125.75,755.93C1127.17,757.24 1129.3,755.12 1127.87,753.82Z" style="fill:rgb(255,192,0);fill-rule:nonzero;"/>
                </g>
                <g transform="matrix(0.712442,0,0,0.712442,19023.8,5708.01)">
                    <path d="M1125.21,735.51C1121.37,730.183 1120.31,723.33 1122.35,717.09C1122.96,715.25 1120.06,714.46 1119.46,716.29C1117.19,723.307 1118.36,730.998 1122.62,737.02C1123.05,737.712 1123.96,737.952 1124.67,737.56C1125.38,737.142 1125.62,736.221 1125.21,735.51Z" style="fill:rgb(255,192,0);fill-rule:nonzero;"/>
                </g>
                <g transform="matrix(0.712442,0,0,0.712442,19023.8,5708.01)">
                    <path d="M1217.5,528.32C1207.91,514.07 1192.09,506.52 1176.5,505.75C1160.91,504.98 1145.41,510.37 1131.31,518.19C1121.2,523.8 1116.22,530.56 1111.31,542.19C1106.4,553.82 1110.86,573.1 1120.99,578.63C1128.32,582.63 1129.9,577.98 1137.82,576C1163.24,569.65 1185.36,574.11 1210.46,578.28C1233.42,582.1 1226.73,542 1217.5,528.32Z" style="fill:rgb(29,29,27);fill-rule:nonzero;"/>
                </g>
                <g transform="matrix(0.712442,0,0,0.712442,19023.8,5708.01)">
                    <path d="M1222,592.89C1218.25,597.57 1215,595.42 1209.63,597.51C1209.63,597.51 1209.2,610.62 1202.48,621.38C1194.4,633.49 1187.04,638.63 1171.57,638.63C1153.33,638.63 1135.5,628.29 1128.78,598.71L1127.99,598.71C1124.98,598.366 1122.12,597.192 1119.74,595.32C1115.81,592.5 1112.43,588.54 1111.51,583.8C1110.59,579.06 1112.72,573.54 1117.15,571.61C1118.1,571.207 1119.12,571.013 1120.15,571.04C1121.05,571.053 1121.95,571.208 1122.8,571.5C1122.8,570.43 1122.74,569.39 1122.74,568.37C1122.74,533.82 1147.14,523.37 1168.89,523.37C1190.35,523.37 1214.89,529.94 1215.24,565.48C1215.24,567.13 1215.24,568.85 1215.14,570.64L1215.14,570.83C1217.85,570.81 1220.46,571.819 1222.46,573.65C1227.33,578.38 1226.28,587.53 1222,592.89Z" style="fill:rgb(255,205,169);fill-rule:nonzero;"/>
                </g>
                <g transform="matrix(0.712442,0,0,0.712442,19023.8,5708.01)">
                    <path d="M1149.1,564.56C1163.02,557.754 1173.24,545.13 1177,530.1C1178,525.83 1181.82,517.92 1185.72,524.2C1187.8,527.56 1181.95,538.85 1180.35,541.76C1173.92,553.4 1162.3,562.35 1149.1,564.56Z" style="fill:rgb(29,29,27);fill-rule:nonzero;"/>
                </g>
                <g transform="matrix(0.712442,0,0,0.712442,19023.8,5708.01)">
                    <path d="M1217.55,567.05L1215.23,565.51L1214.47,565L1202,583.66C1199.17,580.51 1195.13,578.708 1190.89,578.708C1183.61,578.708 1177.34,584.028 1176.15,591.21C1173.76,590.29 1169.5,589.21 1165.34,591.05C1164.03,583.97 1157.79,578.785 1150.59,578.785C1145.41,578.785 1140.58,581.469 1137.85,585.87L1122.73,568.36C1122.73,569.36 1122.73,570.42 1122.79,571.49C1121.94,571.198 1121.04,571.043 1120.14,571.03L1136.2,589.63C1135.78,591.026 1135.57,592.476 1135.57,593.933C1135.57,602.162 1142.34,608.933 1150.57,608.933C1158.34,608.933 1164.89,602.895 1165.52,595.15C1169.66,592.35 1174.83,594.6 1176,595.15C1176.69,602.842 1183.22,608.807 1190.94,608.807C1199.17,608.807 1205.94,602.036 1205.94,593.807C1205.94,591.407 1205.36,589.041 1204.26,586.91L1215.13,570.64L1217.55,567.05ZM1150.61,606.2C1143.75,606.2 1138.1,600.553 1138.1,593.69C1138.1,586.827 1143.75,581.18 1150.61,581.18C1157.47,581.18 1163.12,586.827 1163.12,593.69C1163.12,600.551 1157.47,606.195 1150.61,606.2ZM1190.91,606.2C1184.05,606.2 1178.4,600.553 1178.4,593.69C1178.4,586.827 1184.05,581.18 1190.91,581.18C1197.77,581.18 1203.42,586.827 1203.42,593.69C1203.41,600.551 1197.77,606.195 1190.91,606.2Z" style="fill:rgb(74,94,125);fill-rule:nonzero;"/>
                </g>
                <g transform="matrix(0.712442,0,0,0.712442,19023.8,5708.01)">
                    <path d="M1207.46,558.2C1206.11,550.2 1201.46,542.33 1193.95,539.34C1184.95,535.76 1174.74,540 1166.79,545.52C1158.84,551.04 1151.57,558.05 1142.31,560.87C1133.05,563.69 1120.8,560.23 1118.31,550.87C1115.99,542.08 1123.21,533.73 1130.55,528.37C1142.08,519.96 1155.74,514.04 1169.99,513.37C1184.24,512.7 1199.05,517.67 1208.7,528.17C1220.5,541.02 1236.27,564.05 1214.03,570.87C1209.62,572.79 1208.82,566.23 1207.46,558.2Z" style="fill:rgb(29,29,27);fill-rule:nonzero;"/>
                </g>
                <g transform="matrix(0.712442,0,0,0.712442,19023.8,5708.01)">
                    <path d="M1115.69,583.84C1116.01,580.432 1118.78,577.73 1122.19,577.5C1123.87,577.41 1126.45,588.99 1125.47,590.13C1122.6,593.49 1115.58,586.32 1115.69,583.84Z" style="fill:rgb(247,167,131);fill-rule:nonzero;"/>
                </g>
                <g transform="matrix(0.712442,0,0,0.712442,19023.8,5708.01)">
                    <path d="M1221,581.71C1219.88,578.497 1216.57,576.542 1213.22,577.11C1211.58,577.42 1211.85,589.28 1213.06,590.11C1216.59,592.73 1221.65,584.09 1221,581.71Z" style="fill:rgb(247,167,131);fill-rule:nonzero;"/>
                </g>
                <g transform="matrix(0.712442,0,0,0.712442,19023.8,5708.01)">
                    <path d="M1602.39,768.65C1601.33,764.849 1598.44,761.819 1594.69,760.58C1592.85,759.97 1592.07,762.86 1593.89,763.48C1597.4,764.634 1599.78,767.929 1599.78,771.62C1599.78,773.917 1598.86,776.12 1597.22,777.73C1595.87,779.11 1597.99,781.23 1599.34,779.86C1602.24,776.916 1603.4,772.658 1602.39,768.65Z" style="fill:white;fill-rule:nonzero;"/>
                </g>
                <g transform="matrix(0.712442,0,0,0.712442,19023.8,5708.01)">
                    <path d="M1523.79,745.16C1522.38,743.83 1520.25,745.95 1521.66,747.28C1528.51,753.86 1530.74,763.969 1527.29,772.82C1526.58,774.61 1529.48,775.39 1530.18,773.62C1533.93,763.729 1531.41,752.499 1523.79,745.16Z" style="fill:white;fill-rule:nonzero;"/>
                </g>
                <g transform="matrix(0.712442,0,0,0.712442,19023.8,5708.01)">
                    <path d="M1518,736.65C1515.46,733.304 1511.58,731.219 1507.39,730.94C1506.57,730.94 1505.89,731.617 1505.89,732.44C1505.89,733.263 1506.57,733.94 1507.39,733.94L1508.04,734L1508.4,734.06C1508.8,734.13 1509.2,734.23 1509.6,734.34C1510.02,734.459 1510.43,734.599 1510.83,734.76L1511.16,734.91C1511.35,735.01 1511.55,735.1 1511.74,735.21C1512.1,735.401 1512.46,735.611 1512.8,735.84L1513.34,736.21L1513.48,736.32L1513.66,736.47C1513.98,736.731 1514.28,737.012 1514.57,737.31C1514.72,737.46 1514.87,737.62 1515.01,737.78L1515.24,738.06C1515.24,738.06 1515.47,738.34 1515.33,738.15C1515.76,738.815 1516.63,739.05 1517.33,738.69C1517.84,738.435 1518.17,737.91 1518.17,737.339C1518.17,737.099 1518.11,736.863 1518,736.65Z" style="fill:white;fill-rule:nonzero;"/>
                </g>
                <g transform="matrix(0.712442,0,0,0.712442,19023.8,5708.01)">
                    <path d="M1453.67,763.21C1450.5,758.523 1445.51,755.372 1439.91,754.53C1439.14,754.333 1438.33,754.772 1438.08,755.53C1437.87,756.308 1438.31,757.126 1439.08,757.37C1443.93,758.006 1448.29,760.663 1451.08,764.68C1451.51,765.345 1452.38,765.577 1453.08,765.21C1453.78,764.814 1454.04,763.922 1453.67,763.21Z" style="fill:white;fill-rule:nonzero;"/>
                </g>
                <g transform="matrix(0.712442,0,0,0.712442,19023.8,5708.01)">
                    <path d="M1168.5,727C1166.57,727 1165,725.72 1165,724.14L1165,711.86C1165,710.28 1166.57,709 1168.5,709C1170.43,709 1172,710.28 1172,711.86L1172,724.14C1172,725.72 1170.43,727 1168.5,727Z" style="fill:rgb(29,29,27);fill-rule:nonzero;"/>
                </g>
                <g transform="matrix(0.712442,0,0,0.712442,19023.8,5708.01)">
                    <path d="M1128.28,781.11C1126.46,782.041 1124.57,782.827 1122.62,783.46C1112.82,786.64 1101.78,784.03 1093.22,778.31C1083.71,771.77 1076.86,762.04 1073.89,750.89C1069.89,736.31 1073.18,721.06 1078.89,707.4C1084.41,694.524 1092.51,682.912 1102.68,673.28C1096.63,679.1 1093.3,687.01 1091.18,694.99C1088.72,703.889 1087.2,713.017 1086.62,722.23C1086.27,729.16 1087,736.23 1089.72,742.62C1093.72,752.06 1101.72,761.18 1109.72,767.55C1113.23,770.386 1117.16,772.651 1121.38,774.26C1125.85,775.92 1130.08,775.82 1134.64,776.4C1133.03,778.016 1131.22,779.43 1129.27,780.61C1128.91,780.79 1128.6,781 1128.28,781.11Z" style="fill:rgb(255,209,49);fill-rule:nonzero;"/>
                </g>
                <g transform="matrix(0.712442,0,0,0.712442,19023.8,5708.01)">
                    <path d="M1478.7,375.53C1477.29,371.533 1474.75,368.032 1471.38,365.46C1469.85,364.29 1468.38,366.88 1469.87,368.03C1475.34,372.19 1477.66,379.38 1477.05,386.03C1476.35,393.66 1472.05,400.53 1466.78,405.86C1463.71,408.873 1460.36,411.591 1456.78,413.98C1455.21,415.05 1456.7,417.64 1458.29,416.55C1465.18,411.84 1471.72,406.24 1475.88,398.88C1479.87,391.86 1481.52,383.29 1478.7,375.53Z" style="fill:rgb(184,214,255);fill-rule:nonzero;"/>
                </g>
                <g transform="matrix(0.712442,0,0,0.712442,19023.8,5708.01)">
                    <path d="M1447.62,421.43C1447.2,420.757 1446.32,420.52 1445.62,420.89L1441.24,423.57C1440.79,423.837 1440.51,424.327 1440.51,424.855C1440.51,425.673 1441.18,426.345 1442,426.345C1442.26,426.345 1442.52,426.274 1442.75,426.14L1447.13,423.47C1447.81,423.032 1448.03,422.128 1447.62,421.43Z" style="fill:rgb(184,214,255);fill-rule:nonzero;"/>
                </g>
                <g transform="matrix(0.712442,0,0,0.712442,19023.8,5708.01)">
                    <path d="M1486.48,516.75C1486.16,514.86 1483.28,515.66 1483.61,517.54C1484.39,522.769 1482.74,528.08 1479.13,531.94C1475.5,535.752 1470.65,538.185 1465.43,538.82C1464.62,538.846 1463.96,539.501 1463.93,540.31C1463.93,541.03 1464.63,541.91 1465.43,541.8C1471.43,540.99 1477.43,538.42 1481.49,533.8C1485.66,529.176 1487.5,522.893 1486.48,516.75Z" style="fill:rgb(184,214,255);fill-rule:nonzero;"/>
                </g>
                <g transform="matrix(0.712442,0,0,0.712442,19023.8,5708.01)">
                    <path d="M1484.2,507.2C1483.77,504.631 1482.95,502.143 1481.77,499.82C1481.35,499.146 1480.47,498.913 1479.77,499.29C1479.1,499.713 1478.87,500.588 1479.23,501.29C1479.37,501.56 1479.5,501.82 1479.62,502.09L1479.83,502.56L1479.83,502.68C1480.06,503.253 1480.27,503.833 1480.46,504.42C1480.84,505.576 1481.12,506.76 1481.32,507.96C1481.56,508.731 1482.37,509.179 1483.15,508.96C1483.89,508.726 1484.35,507.964 1484.2,507.2Z" style="fill:rgb(184,214,255);fill-rule:nonzero;"/>
                </g>
            </g>
        </g>
    </g>
</svg>
